<?xml version="1.0" standalone="no"?>
<!DOCTYPE svg PUBLIC "-//W3C//DTD SVG 20010904//EN"
 "http://www.w3.org/TR/2001/REC-SVG-20010904/DTD/svg10.dtd">
<svg version="1.0" xmlns="http://www.w3.org/2000/svg"
 width="512.000000pt" height="512.000000pt" viewBox="0 0 512.000000 512.000000"
 preserveAspectRatio="xMidYMid meet">
<metadata>
Created by potrace 1.14, written by Peter Selinger 2001-2017
</metadata>
<g transform="translate(0.000000,512.000000) scale(0.100000,-0.100000)"
fill="#000000" stroke="none">
<path d="M2408 5115 c-2 -1 -37 -5 -78 -9 -118 -10 -174 -16 -190 -22 -8 -3
-33 -8 -55 -10 -22 -3 -47 -8 -55 -10 -8 -3 -26 -8 -40 -10 -284 -53 -715
-253 -965 -448 -22 -17 -49 -38 -59 -46 -58 -45 -201 -177 -266 -246 -195
-204 -362 -457 -475 -714 -25 -58 -50 -114 -55 -125 -39 -85 -109 -350 -135
-508 -36 -217 -40 -567 -9 -757 53 -328 121 -547 246 -794 78 -154 220 -376
282 -442 6 -7 26 -31 45 -55 53 -67 277 -288 361 -354 217 -173 503 -331 755
-418 188 -65 341 -100 580 -134 22 -3 667 -8 1433 -10 l1393 -4 -4 1398 c-2
769 -6 1407 -9 1418 -3 11 -9 45 -12 75 -4 30 -9 69 -12 85 -3 17 -9 50 -14
75 -29 159 -73 306 -138 471 -36 90 -160 333 -200 393 -16 22 -43 64 -62 91
-99 148 -252 322 -402 457 -385 345 -858 564 -1373 633 -100 14 -476 29 -487
20z m-606 -1668 c18 -3 39 -6 47 -8 30 -8 130 -65 160 -91 32 -29 100 -126
105 -149 2 -8 6 -21 9 -29 31 -78 21 -217 -22 -293 -18 -32 -18 -57 1 -57 35
0 169 -120 226 -203 82 -118 119 -284 98 -434 -31 -220 -205 -422 -426 -495
-63 -21 -80 -22 -712 -24 l-648 -2 0 893 0 894 28 3 c43 5 1096 0 1134 -5z
m1554 -825 c0 -457 4 -835 7 -839 4 -3 256 -6 562 -6 l555 1 0 -58 0 -57 -897
1 -898 1 -1 890 c-1 490 0 893 2 896 2 4 153 6 336 5 l333 -1 1 -833z"/>
<path d="M759 3336 c-4 -2 -4 -96 0 -96 7 0 91 87 91 94 0 5 -81 6 -91 2z"/>
<path d="M890 3204 l-134 -134 -1 -110 c0 -60 3 -110 7 -110 8 0 488 476 488
483 0 2 -51 4 -112 4 l-113 0 -135 -133z"/>
<path d="M1086 3006 l-331 -331 0 -112 c-1 -62 2 -113 5 -113 7 0 880 875 880
882 0 4 -50 6 -111 5 l-112 0 -331 -331z"/>
<path d="M1280 2804 l-525 -525 0 -114 c0 -63 1 -115 2 -115 2 0 271 269 600
597 l596 597 -34 29 c-33 28 -51 37 -94 50 -16 5 -117 -91 -545 -519z"/>
<path d="M1386 2516 l-628 -628 -3 -49 c-2 -28 1 -52 7 -55 6 -4 34 -8 62 -9
l51 -1 550 548 c303 302 556 561 562 576 37 85 50 165 35 216 -8 29 -17 21
-636 -598z"/>
<path d="M1525 2259 c-263 -263 -475 -479 -470 -480 16 -1 199 -1 213 0 6 1
208 197 448 437 434 435 436 436 412 452 -12 9 -25 19 -28 22 -3 3 -23 14 -45
24 -22 10 -42 20 -45 21 -3 2 -221 -212 -485 -476z"/>
<path d="M1827 2169 c-213 -214 -381 -389 -375 -390 7 0 59 -1 115 -2 l102 -2
316 316 315 315 -15 44 c-17 48 -53 110 -63 109 -4 0 -181 -176 -395 -390z"/>
<path d="M2075 2019 l-240 -241 51 6 c104 12 190 54 271 133 94 92 131 158
149 268 11 67 13 75 11 75 -1 0 -110 -108 -242 -241z"/>
<path d="M2804 3339 c-8 -13 -11 -78 -4 -89 3 -5 28 13 55 40 46 47 48 50 25
51 -14 0 -35 2 -48 3 -13 2 -25 -1 -28 -5z"/>
<path d="M3072 3338 c-9 -3 -75 -65 -145 -135 l-128 -129 -2 -108 c-1 -59 1
-110 5 -112 11 -7 427 412 437 440 15 39 -1 49 -79 50 -39 0 -79 -2 -88 -6z"/>
<path d="M3021 2896 l-224 -225 -1 -106 c-1 -59 2 -108 5 -110 3 -2 104 95
224 215 l219 219 0 115 c1 64 1 116 1 116 0 0 -101 -101 -224 -224z"/>
<path d="M3011 2492 l-215 -217 1 -105 c1 -58 2 -109 2 -115 1 -5 101 91 224
213 l222 222 -1 107 c0 59 -5 108 -10 109 -5 1 -105 -95 -223 -214z"/>
<path d="M3021 2106 l-224 -224 -1 -47 c-1 -26 2 -49 6 -51 7 -5 82 -8 115 -5
7 1 84 72 170 159 l158 158 0 117 c0 64 0 117 0 117 0 0 -101 -101 -224 -224z"/>
<path d="M3168 1859 c-38 -38 -68 -73 -68 -77 0 -9 127 -8 137 1 6 7 7 136 1
142 -2 1 -33 -28 -70 -66z"/>
</g>
</svg>
